<svg width="20" height="20" viewBox="0 0 20 20" fill="none" xmlns="http://www.w3.org/2000/svg">
<path d="M5.62439 14.083C5.46339 14.0838 5.3335 14.2145 5.3335 14.3755C5.3335 14.5365 5.46416 14.6663 5.62516 14.6663C5.78616 14.6663 5.91683 14.5357 5.91683 14.3747C5.91683 14.2137 5.78616 14.083 5.62439 14.083Z" stroke="#020304" stroke-linecap="round" stroke-linejoin="round"/>
<path d="M5.72222 17C4.21878 17 3 15.7812 3 14.2778V4.55556C3 3.69611 3.69611 3 4.55556 3H6.88889C7.74833 3 8.44444 3.69611 8.44444 4.55556V14.2778C8.44444 15.7812 7.22567 17 5.72222 17Z" stroke="#020304" stroke-linecap="round" stroke-linejoin="round"/>
<path d="M7.64746 16.2025L15.2005 8.64953C15.8079 8.04209 15.8079 7.05742 15.2005 6.44998L13.5508 4.80031C12.9433 4.19287 11.9587 4.19287 11.3512 4.80031L8.44468 7.70531" stroke="#020304" stroke-linecap="round" stroke-linejoin="round"/>
<path d="M12.2944 11.5557H15.4444C16.3038 11.5557 16.9999 12.2518 16.9999 13.1112V15.4446C16.9999 16.304 16.3038 17.0001 15.4444 17.0001H5.72217" stroke="#020304" stroke-linecap="round" stroke-linejoin="round"/>
</svg>
